<svg width="20" height="16" viewBox="0 0 20 16" fill="none" xmlns="http://www.w3.org/2000/svg">
<g clip-path="url(#clip0_2_1617)">
<path d="M6.61874 0C6.86249 0 7.06562 0.178125 7.14062 0.4125C7.52499 1.62188 8.65937 2.5 9.99999 2.5C11.3406 2.5 12.475 1.62188 12.8594 0.4125C12.9344 0.178125 13.1375 0 13.3812 0H13.775C14.4781 0 15.1562 0.246875 15.6969 0.696875L19.6406 3.98125C19.8469 4.15312 19.975 4.40312 19.9969 4.67188C20.0187 4.94063 19.9312 5.20625 19.7531 5.40938L18.0031 7.40938C17.6469 7.81875 17.0281 7.86563 16.6094 7.51875L15 6.17812V14C15 15.1031 14.1031 16 13 16H6.99999C5.89687 16 4.99999 15.1031 4.99999 14V6.17812L3.39062 7.51875C2.97499 7.86563 2.35624 7.81875 1.99687 7.40938L0.246867 5.40938C0.0687421 5.20625 -0.0187579 4.94063 0.00311714 4.67188C0.0249921 4.40312 0.153117 4.15312 0.359367 3.98125L4.30312 0.696875C4.84374 0.246875 5.52187 0 6.22499 0H6.61874Z" fill="#993333"/>
</g>
<defs>
<clipPath id="clip0_2_1617">
<path d="M0 0H20V16H0V0Z" fill="white"/>
</clipPath>
</defs>
</svg>
